<svg xmlns="http://www.w3.org/2000/svg" viewBox="0 0 24 24">
  <path d="M6.45 8.25h11.1l-.7 10.3A1.9 1.9 0 0 1 14.96 20.3H9.04a1.9 1.9 0 0 1-1.89-1.75l-.7-10.3Z" fill="currentColor" opacity=".22"/>
  <path d="M6.45 8.25h11.1l-.7 10.3A1.9 1.9 0 0 1 14.96 20.3H9.04a1.9 1.9 0 0 1-1.89-1.75l-.7-10.3Z" fill="none" stroke="currentColor" stroke-width="1.95" stroke-linecap="round" stroke-linejoin="round"/>
  <path d="M8.9 8.6V7.2a3.1 3.1 0 0 1 6.2 0v1.4" fill="none" stroke="currentColor" stroke-width="1.95" stroke-linecap="round"/>
  <path d="M9.25 15.95v-3.8L12 14.62l2.75-2.47v3.8" fill="none" stroke="currentColor" stroke-width="1.95" stroke-linecap="round" stroke-linejoin="round"/>
</svg>
